<svg xmlns="http://www.w3.org/2000/svg" width="780" height="326" viewBox="0 0 780 326" role="img">
    <defs>
      <linearGradient id="panel" x1="0" y1="0" x2="1" y2="1">
        <stop offset="0" stop-color="#0C1424"/><stop offset="1" stop-color="#070B14"/>
      </linearGradient>
      <linearGradient id="bluefade" x1="0" y1="0" x2="1" y2="0">
        <stop offset="0" stop-color="#377DFF" stop-opacity=".30"/>
        <stop offset="1" stop-color="#58E6FF" stop-opacity="0"/>
      </linearGradient>
      <radialGradient id="halo" cx="78%" cy="28%" r="58%">
        <stop offset="0" stop-color="#377DFF" stop-opacity=".20"/>
        <stop offset="1" stop-color="#050811" stop-opacity="0"/>
      </radialGradient>
      <pattern id="grid" width="26" height="26" patternUnits="userSpaceOnUse">
        <path d="M26 0H0V26" fill="none" stroke="#183052" stroke-width=".7" opacity=".42"/>
      </pattern>
      <pattern id="scan" width="4" height="4" patternUnits="userSpaceOnUse">
        <rect width="4" height="2" fill="#000" opacity=".22"/>
      </pattern>
      <filter id="glow" x="-80%" y="-80%" width="260%" height="260%">
        <feGaussianBlur stdDeviation="2.2" result="blur"/>
        <feMerge><feMergeNode in="blur"/><feMergeNode in="SourceGraphic"/></feMerge>
      </filter>
      <clipPath id="heroPortrait"><path d="M548 47H746V283L718 311H520V75Z"/></clipPath>
    </defs><style>
text,tspan{font-family:ui-monospace,SFMono-Regular,Menlo,Consolas,'Liberation Mono',monospace}
.sans{font-family:Inter,'Segoe UI',Arial,sans-serif}
.micro{font-size:9px;letter-spacing:1.55px}
.muted{fill:#7D91A9}
.label{fill:#58E6FF;font-size:10px;letter-spacing:1.7px}
.pulse{animation:pulse 2.4s ease-in-out infinite}
.blink{animation:blink 1.2s steps(1,end) infinite}
.scan{animation:scan 7s linear infinite}
.dash{animation:dash 5s linear infinite}
@keyframes pulse{0%,100%{opacity:.42}50%{opacity:1}}
@keyframes blink{0%,56%{opacity:1}57%,100%{opacity:.18}}
@keyframes scan{from{transform:translateY(-30px)}to{transform:translateY(380px)}}
@keyframes dash{to{stroke-dashoffset:-80}}
</style>
    <rect x="1" y="1" width="778" height="324" rx="4" fill="url(#panel)" stroke="#1D3354"/>
    <rect x="1" y="1" width="5" height="324" rx="2" fill="#377DFF"/>
    <path d="M18 31H762" stroke="#1D3354"/>
    <circle class="pulse" cx="20" cy="16" r="3.5" fill="#58E6A9"/>
    <text x="31" y="20" class="label">06 // 📊 GITHUB STATS</text>
    <text x="760" y="20" text-anchor="end" class="micro muted">LIVE://GITHUB</text>
    <rect x="22" y="47" width="169" height="54" rx="4" fill="#07101D" stroke="#1D3354"/><text x="35" y="74" class="sans" font-size="21" font-weight="700" fill="#DCE9F7">49</text><text x="35" y="91" class="micro muted">REPOSITORIES</text><rect x="207" y="47" width="169" height="54" rx="4" fill="#07101D" stroke="#1D3354"/><text x="220" y="74" class="sans" font-size="21" font-weight="700" fill="#DCE9F7">64</text><text x="220" y="91" class="micro muted">TOTAL STARS</text><rect x="392" y="47" width="169" height="54" rx="4" fill="#07101D" stroke="#1D3354"/><text x="405" y="74" class="sans" font-size="21" font-weight="700" fill="#DCE9F7">40</text><text x="405" y="91" class="micro muted">FOLLOWERS</text><rect x="577" y="47" width="169" height="54" rx="4" fill="#07101D" stroke="#1D3354"/><text x="590" y="74" class="sans" font-size="21" font-weight="700" fill="#DCE9F7">45</text><text x="590" y="91" class="micro muted">FOLLOWING</text><text x="22" y="128" class="micro muted">LANGUAGE DISTRIBUTION // BYTES ACROSS OWNED PUBLIC REPOSITORIES</text><rect x="22.0" y="143" width="439.9" height="11" fill="#377DFF"/><rect x="461.9" y="143" width="245.1" height="11" fill="#58E6FF"/><rect x="707.0" y="143" width="17.8" height="11" fill="#58E6A9"/><rect x="724.8" y="143" width="13.1" height="11" fill="#A98BFF"/><rect x="737.9" y="143" width="10.8" height="11" fill="#FFCA6A"/><rect x="748.7" y="143" width="9.3" height="11" fill="#FF7FA8"/><circle cx="26" cy="173" r="4" fill="#377DFF"/><text x="36" y="177" font-size="10" fill="#DCE9F7">C <tspan fill="#7D91A9">56.9%</tspan></text><circle cx="109.7" cy="173" r="4" fill="#58E6FF"/><text x="119.7" y="177" font-size="10" fill="#DCE9F7">C++ <tspan fill="#7D91A9">31.7%</tspan></text><circle cx="204.8" cy="173" r="4" fill="#58E6A9"/><text x="214.8" y="177" font-size="10" fill="#DCE9F7">Python <tspan fill="#7D91A9">2.3%</tspan></text><circle cx="317.0" cy="173" r="4" fill="#A98BFF"/><text x="327.0" y="177" font-size="10" fill="#DCE9F7">GLSL <tspan fill="#7D91A9">1.7%</tspan></text><circle cx="417.8" cy="173" r="4" fill="#FFCA6A"/><text x="427.8" y="177" font-size="10" fill="#DCE9F7">TypeScript <tspan fill="#7D91A9">1.4%</tspan></text><circle cx="552.8" cy="173" r="4" fill="#FF7FA8"/><text x="562.8" y="177" font-size="10" fill="#DCE9F7">Makefile <tspan fill="#7D91A9">1.2%</tspan></text><text x="22" y="207" class="micro muted">CONTRIBUTION SIGNAL // LAST 53 WEEKS</text><rect x="22" y="221" width="8" height="8" rx="1.5" fill="#0D1727"/><rect x="22" y="232" width="8" height="8" rx="1.5" fill="#0D1727"/><rect x="22" y="243" width="8" height="8" rx="1.5" fill="#0D1727"/><rect x="22" y="254" width="8" height="8" rx="1.5" fill="#0D1727"/><rect x="22" y="265" width="8" height="8" rx="1.5" fill="#0D1727"/><rect x="22" y="276" width="8" height="8" rx="1.5" fill="#123153"/><rect x="22" y="287" width="8" height="8" rx="1.5" fill="#123153"/><rect x="33" y="221" width="8" height="8" rx="1.5" fill="#0D1727"/><rect x="33" y="232" width="8" height="8" rx="1.5" fill="#0D1727"/><rect x="33" y="243" width="8" height="8" rx="1.5" fill="#0D1727"/><rect x="33" y="254" width="8" height="8" rx="1.5" fill="#0D1727"/><rect x="33" y="265" width="8" height="8" rx="1.5" fill="#0D1727"/><rect x="33" y="276" width="8" height="8" rx="1.5" fill="#0D1727"/><rect x="33" y="287" width="8" height="8" rx="1.5" fill="#0D1727"/><rect x="44" y="221" width="8" height="8" rx="1.5" fill="#0D1727"/><rect x="44" y="232" width="8" height="8" rx="1.5" fill="#0D1727"/><rect x="44" y="243" width="8" height="8" rx="1.5" fill="#0D1727"/><rect x="44" y="254" width="8" height="8" rx="1.5" fill="#0D1727"/><rect x="44" y="265" width="8" height="8" rx="1.5" fill="#0D1727"/><rect x="44" y="276" width="8" height="8" rx="1.5" fill="#0D1727"/><rect x="44" y="287" width="8" height="8" rx="1.5" fill="#0D1727"/><rect x="55" y="221" width="8" height="8" rx="1.5" fill="#0D1727"/><rect x="55" y="232" width="8" height="8" rx="1.5" fill="#0D1727"/><rect x="55" y="243" width="8" height="8" rx="1.5" fill="#0D1727"/><rect x="55" y="254" width="8" height="8" rx="1.5" fill="#0D1727"/><rect x="55" y="265" width="8" height="8" rx="1.5" fill="#123153"/><rect x="55" y="276" width="8" height="8" rx="1.5" fill="#0D1727"/><rect x="55" y="287" width="8" height="8" rx="1.5" fill="#0D1727"/><rect x="66" y="221" width="8" height="8" rx="1.5" fill="#0D1727"/><rect x="66" y="232" width="8" height="8" rx="1.5" fill="#185181"/><rect x="66" y="243" width="8" height="8" rx="1.5" fill="#123153"/><rect x="66" y="254" width="8" height="8" rx="1.5" fill="#0D1727"/><rect x="66" y="265" width="8" height="8" rx="1.5" fill="#0D1727"/><rect x="66" y="276" width="8" height="8" rx="1.5" fill="#0D1727"/><rect x="66" y="287" width="8" height="8" rx="1.5" fill="#0D1727"/><rect x="77" y="221" width="8" height="8" rx="1.5" fill="#0D1727"/><rect x="77" y="232" width="8" height="8" rx="1.5" fill="#0D1727"/><rect x="77" y="243" width="8" height="8" rx="1.5" fill="#0D1727"/><rect x="77" y="254" width="8" height="8" rx="1.5" fill="#0D1727"/><rect x="77" y="265" width="8" height="8" rx="1.5" fill="#0D1727"/><rect x="77" y="276" width="8" height="8" rx="1.5" fill="#0D1727"/><rect x="77" y="287" width="8" height="8" rx="1.5" fill="#0D1727"/><rect x="88" y="221" width="8" height="8" rx="1.5" fill="#123153"/><rect x="88" y="232" width="8" height="8" rx="1.5" fill="#0D1727"/><rect x="88" y="243" width="8" height="8" rx="1.5" fill="#0D1727"/><rect x="88" y="254" width="8" height="8" rx="1.5" fill="#0D1727"/><rect x="88" y="265" width="8" height="8" rx="1.5" fill="#0D1727"/><rect x="88" y="276" width="8" height="8" rx="1.5" fill="#0D1727"/><rect x="88" y="287" width="8" height="8" rx="1.5" fill="#0D1727"/><rect x="99" y="221" width="8" height="8" rx="1.5" fill="#0D1727"/><rect x="99" y="232" width="8" height="8" rx="1.5" fill="#0D1727"/><rect x="99" y="243" width="8" height="8" rx="1.5" fill="#123153"/><rect x="99" y="254" width="8" height="8" rx="1.5" fill="#0D1727"/><rect x="99" y="265" width="8" height="8" rx="1.5" fill="#0D1727"/><rect x="99" y="276" width="8" height="8" rx="1.5" fill="#0D1727"/><rect x="99" y="287" width="8" height="8" rx="1.5" fill="#0D1727"/><rect x="110" y="221" width="8" height="8" rx="1.5" fill="#0D1727"/><rect x="110" y="232" width="8" height="8" rx="1.5" fill="#0D1727"/><rect x="110" y="243" width="8" height="8" rx="1.5" fill="#123153"/><rect x="110" y="254" width="8" height="8" rx="1.5" fill="#0D1727"/><rect x="110" y="265" width="8" height="8" rx="1.5" fill="#0D1727"/><rect x="110" y="276" width="8" height="8" rx="1.5" fill="#0D1727"/><rect x="110" y="287" width="8" height="8" rx="1.5" fill="#123153"/><rect x="121" y="221" width="8" height="8" rx="1.5" fill="#58E6FF"/><rect x="121" y="232" width="8" height="8" rx="1.5" fill="#185181"/><rect x="121" y="243" width="8" height="8" rx="1.5" fill="#123153"/><rect x="121" y="254" width="8" height="8" rx="1.5" fill="#58E6FF"/><rect x="121" y="265" width="8" height="8" rx="1.5" fill="#0D1727"/><rect x="121" y="276" width="8" height="8" rx="1.5" fill="#0D1727"/><rect x="121" y="287" width="8" height="8" rx="1.5" fill="#123153"/><rect x="132" y="221" width="8" height="8" rx="1.5" fill="#123153"/><rect x="132" y="232" width="8" height="8" rx="1.5" fill="#123153"/><rect x="132" y="243" width="8" height="8" rx="1.5" fill="#185181"/><rect x="132" y="254" width="8" height="8" rx="1.5" fill="#0D1727"/><rect x="132" y="265" width="8" height="8" rx="1.5" fill="#185181"/><rect x="132" y="276" width="8" height="8" rx="1.5" fill="#0D1727"/><rect x="132" y="287" width="8" height="8" rx="1.5" fill="#123153"/><rect x="143" y="221" width="8" height="8" rx="1.5" fill="#123153"/><rect x="143" y="232" width="8" height="8" rx="1.5" fill="#0D1727"/><rect x="143" y="243" width="8" height="8" rx="1.5" fill="#0D1727"/><rect x="143" y="254" width="8" height="8" rx="1.5" fill="#0D1727"/><rect x="143" y="265" width="8" height="8" rx="1.5" fill="#123153"/><rect x="143" y="276" width="8" height="8" rx="1.5" fill="#123153"/><rect x="143" y="287" width="8" height="8" rx="1.5" fill="#123153"/><rect x="154" y="221" width="8" height="8" rx="1.5" fill="#123153"/><rect x="154" y="232" width="8" height="8" rx="1.5" fill="#0D1727"/><rect x="154" y="243" width="8" height="8" rx="1.5" fill="#0D1727"/><rect x="154" y="254" width="8" height="8" rx="1.5" fill="#0D1727"/><rect x="154" y="265" width="8" height="8" rx="1.5" fill="#0D1727"/><rect x="154" y="276" width="8" height="8" rx="1.5" fill="#0D1727"/><rect x="154" y="287" width="8" height="8" rx="1.5" fill="#0D1727"/><rect x="165" y="221" width="8" height="8" rx="1.5" fill="#0D1727"/><rect x="165" y="232" width="8" height="8" rx="1.5" fill="#0D1727"/><rect x="165" y="243" width="8" height="8" rx="1.5" fill="#0D1727"/><rect x="165" y="254" width="8" height="8" rx="1.5" fill="#0D1727"/><rect x="165" y="265" width="8" height="8" rx="1.5" fill="#0D1727"/><rect x="165" y="276" width="8" height="8" rx="1.5" fill="#0D1727"/><rect x="165" y="287" width="8" height="8" rx="1.5" fill="#0D1727"/><rect x="176" y="221" width="8" height="8" rx="1.5" fill="#0D1727"/><rect x="176" y="232" width="8" height="8" rx="1.5" fill="#0D1727"/><rect x="176" y="243" width="8" height="8" rx="1.5" fill="#0D1727"/><rect x="176" y="254" width="8" height="8" rx="1.5" fill="#0D1727"/><rect x="176" y="265" width="8" height="8" rx="1.5" fill="#0D1727"/><rect x="176" y="276" width="8" height="8" rx="1.5" fill="#0D1727"/><rect x="176" y="287" width="8" height="8" rx="1.5" fill="#0D1727"/><rect x="187" y="221" width="8" height="8" rx="1.5" fill="#0D1727"/><rect x="187" y="232" width="8" height="8" rx="1.5" fill="#0D1727"/><rect x="187" y="243" width="8" height="8" rx="1.5" fill="#0D1727"/><rect x="187" y="254" width="8" height="8" rx="1.5" fill="#0D1727"/><rect x="187" y="265" width="8" height="8" rx="1.5" fill="#0D1727"/><rect x="187" y="276" width="8" height="8" rx="1.5" fill="#185181"/><rect x="187" y="287" width="8" height="8" rx="1.5" fill="#123153"/><rect x="198" y="221" width="8" height="8" rx="1.5" fill="#0D1727"/><rect x="198" y="232" width="8" height="8" rx="1.5" fill="#123153"/><rect x="198" y="243" width="8" height="8" rx="1.5" fill="#123153"/><rect x="198" y="254" width="8" height="8" rx="1.5" fill="#185181"/><rect x="198" y="265" width="8" height="8" rx="1.5" fill="#123153"/><rect x="198" y="276" width="8" height="8" rx="1.5" fill="#123153"/><rect x="198" y="287" width="8" height="8" rx="1.5" fill="#237AB1"/><rect x="209" y="221" width="8" height="8" rx="1.5" fill="#185181"/><rect x="209" y="232" width="8" height="8" rx="1.5" fill="#0D1727"/><rect x="209" y="243" width="8" height="8" rx="1.5" fill="#0D1727"/><rect x="209" y="254" width="8" height="8" rx="1.5" fill="#123153"/><rect x="209" y="265" width="8" height="8" rx="1.5" fill="#58E6FF"/><rect x="209" y="276" width="8" height="8" rx="1.5" fill="#123153"/><rect x="209" y="287" width="8" height="8" rx="1.5" fill="#0D1727"/><rect x="220" y="221" width="8" height="8" rx="1.5" fill="#123153"/><rect x="220" y="232" width="8" height="8" rx="1.5" fill="#123153"/><rect x="220" y="243" width="8" height="8" rx="1.5" fill="#0D1727"/><rect x="220" y="254" width="8" height="8" rx="1.5" fill="#0D1727"/><rect x="220" y="265" width="8" height="8" rx="1.5" fill="#0D1727"/><rect x="220" y="276" width="8" height="8" rx="1.5" fill="#0D1727"/><rect x="220" y="287" width="8" height="8" rx="1.5" fill="#0D1727"/><rect x="231" y="221" width="8" height="8" rx="1.5" fill="#0D1727"/><rect x="231" y="232" width="8" height="8" rx="1.5" fill="#123153"/><rect x="231" y="243" width="8" height="8" rx="1.5" fill="#0D1727"/><rect x="231" y="254" width="8" height="8" rx="1.5" fill="#0D1727"/><rect x="231" y="265" width="8" height="8" rx="1.5" fill="#123153"/><rect x="231" y="276" width="8" height="8" rx="1.5" fill="#0D1727"/><rect x="231" y="287" width="8" height="8" rx="1.5" fill="#0D1727"/><rect x="242" y="221" width="8" height="8" rx="1.5" fill="#0D1727"/><rect x="242" y="232" width="8" height="8" rx="1.5" fill="#0D1727"/><rect x="242" y="243" width="8" height="8" rx="1.5" fill="#0D1727"/><rect x="242" y="254" width="8" height="8" rx="1.5" fill="#0D1727"/><rect x="242" y="265" width="8" height="8" rx="1.5" fill="#0D1727"/><rect x="242" y="276" width="8" height="8" rx="1.5" fill="#0D1727"/><rect x="242" y="287" width="8" height="8" rx="1.5" fill="#0D1727"/><rect x="253" y="221" width="8" height="8" rx="1.5" fill="#0D1727"/><rect x="253" y="232" width="8" height="8" rx="1.5" fill="#0D1727"/><rect x="253" y="243" width="8" height="8" rx="1.5" fill="#0D1727"/><rect x="253" y="254" width="8" height="8" rx="1.5" fill="#0D1727"/><rect x="253" y="265" width="8" height="8" rx="1.5" fill="#0D1727"/><rect x="253" y="276" width="8" height="8" rx="1.5" fill="#0D1727"/><rect x="253" y="287" width="8" height="8" rx="1.5" fill="#0D1727"/><rect x="264" y="221" width="8" height="8" rx="1.5" fill="#0D1727"/><rect x="264" y="232" width="8" height="8" rx="1.5" fill="#0D1727"/><rect x="264" y="243" width="8" height="8" rx="1.5" fill="#0D1727"/><rect x="264" y="254" width="8" height="8" rx="1.5" fill="#0D1727"/><rect x="264" y="265" width="8" height="8" rx="1.5" fill="#0D1727"/><rect x="264" y="276" width="8" height="8" rx="1.5" fill="#0D1727"/><rect x="264" y="287" width="8" height="8" rx="1.5" fill="#0D1727"/><rect x="275" y="221" width="8" height="8" rx="1.5" fill="#0D1727"/><rect x="275" y="232" width="8" height="8" rx="1.5" fill="#123153"/><rect x="275" y="243" width="8" height="8" rx="1.5" fill="#237AB1"/><rect x="275" y="254" width="8" height="8" rx="1.5" fill="#0D1727"/><rect x="275" y="265" width="8" height="8" rx="1.5" fill="#123153"/><rect x="275" y="276" width="8" height="8" rx="1.5" fill="#0D1727"/><rect x="275" y="287" width="8" height="8" rx="1.5" fill="#58E6FF"/><rect x="286" y="221" width="8" height="8" rx="1.5" fill="#185181"/><rect x="286" y="232" width="8" height="8" rx="1.5" fill="#58E6FF"/><rect x="286" y="243" width="8" height="8" rx="1.5" fill="#0D1727"/><rect x="286" y="254" width="8" height="8" rx="1.5" fill="#123153"/><rect x="286" y="265" width="8" height="8" rx="1.5" fill="#0D1727"/><rect x="286" y="276" width="8" height="8" rx="1.5" fill="#0D1727"/><rect x="286" y="287" width="8" height="8" rx="1.5" fill="#0D1727"/><rect x="297" y="221" width="8" height="8" rx="1.5" fill="#185181"/><rect x="297" y="232" width="8" height="8" rx="1.5" fill="#0D1727"/><rect x="297" y="243" width="8" height="8" rx="1.5" fill="#123153"/><rect x="297" y="254" width="8" height="8" rx="1.5" fill="#0D1727"/><rect x="297" y="265" width="8" height="8" rx="1.5" fill="#0D1727"/><rect x="297" y="276" width="8" height="8" rx="1.5" fill="#123153"/><rect x="297" y="287" width="8" height="8" rx="1.5" fill="#123153"/><rect x="308" y="221" width="8" height="8" rx="1.5" fill="#123153"/><rect x="308" y="232" width="8" height="8" rx="1.5" fill="#123153"/><rect x="308" y="243" width="8" height="8" rx="1.5" fill="#123153"/><rect x="308" y="254" width="8" height="8" rx="1.5" fill="#123153"/><rect x="308" y="265" width="8" height="8" rx="1.5" fill="#123153"/><rect x="308" y="276" width="8" height="8" rx="1.5" fill="#123153"/><rect x="308" y="287" width="8" height="8" rx="1.5" fill="#123153"/><rect x="319" y="221" width="8" height="8" rx="1.5" fill="#0D1727"/><rect x="319" y="232" width="8" height="8" rx="1.5" fill="#123153"/><rect x="319" y="243" width="8" height="8" rx="1.5" fill="#123153"/><rect x="319" y="254" width="8" height="8" rx="1.5" fill="#0D1727"/><rect x="319" y="265" width="8" height="8" rx="1.5" fill="#0D1727"/><rect x="319" y="276" width="8" height="8" rx="1.5" fill="#123153"/><rect x="319" y="287" width="8" height="8" rx="1.5" fill="#123153"/><rect x="330" y="221" width="8" height="8" rx="1.5" fill="#0D1727"/><rect x="330" y="232" width="8" height="8" rx="1.5" fill="#0D1727"/><rect x="330" y="243" width="8" height="8" rx="1.5" fill="#0D1727"/><rect x="330" y="254" width="8" height="8" rx="1.5" fill="#0D1727"/><rect x="330" y="265" width="8" height="8" rx="1.5" fill="#0D1727"/><rect x="330" y="276" width="8" height="8" rx="1.5" fill="#0D1727"/><rect x="330" y="287" width="8" height="8" rx="1.5" fill="#0D1727"/><rect x="341" y="221" width="8" height="8" rx="1.5" fill="#0D1727"/><rect x="341" y="232" width="8" height="8" rx="1.5" fill="#0D1727"/><rect x="341" y="243" width="8" height="8" rx="1.5" fill="#0D1727"/><rect x="341" y="254" width="8" height="8" rx="1.5" fill="#0D1727"/><rect x="341" y="265" width="8" height="8" rx="1.5" fill="#123153"/><rect x="341" y="276" width="8" height="8" rx="1.5" fill="#237AB1"/><rect x="341" y="287" width="8" height="8" rx="1.5" fill="#0D1727"/><rect x="352" y="221" width="8" height="8" rx="1.5" fill="#0D1727"/><rect x="352" y="232" width="8" height="8" rx="1.5" fill="#0D1727"/><rect x="352" y="243" width="8" height="8" rx="1.5" fill="#0D1727"/><rect x="352" y="254" width="8" height="8" rx="1.5" fill="#0D1727"/><rect x="352" y="265" width="8" height="8" rx="1.5" fill="#237AB1"/><rect x="352" y="276" width="8" height="8" rx="1.5" fill="#0D1727"/><rect x="352" y="287" width="8" height="8" rx="1.5" fill="#0D1727"/><rect x="363" y="221" width="8" height="8" rx="1.5" fill="#0D1727"/><rect x="363" y="232" width="8" height="8" rx="1.5" fill="#0D1727"/><rect x="363" y="243" width="8" height="8" rx="1.5" fill="#185181"/><rect x="363" y="254" width="8" height="8" rx="1.5" fill="#123153"/><rect x="363" y="265" width="8" height="8" rx="1.5" fill="#0D1727"/><rect x="363" y="276" width="8" height="8" rx="1.5" fill="#0D1727"/><rect x="363" y="287" width="8" height="8" rx="1.5" fill="#123153"/><rect x="374" y="221" width="8" height="8" rx="1.5" fill="#0D1727"/><rect x="374" y="232" width="8" height="8" rx="1.5" fill="#0D1727"/><rect x="374" y="243" width="8" height="8" rx="1.5" fill="#0D1727"/><rect x="374" y="254" width="8" height="8" rx="1.5" fill="#185181"/><rect x="374" y="265" width="8" height="8" rx="1.5" fill="#123153"/><rect x="374" y="276" width="8" height="8" rx="1.5" fill="#123153"/><rect x="374" y="287" width="8" height="8" rx="1.5" fill="#0D1727"/><rect x="385" y="221" width="8" height="8" rx="1.5" fill="#0D1727"/><rect x="385" y="232" width="8" height="8" rx="1.5" fill="#0D1727"/><rect x="385" y="243" width="8" height="8" rx="1.5" fill="#0D1727"/><rect x="385" y="254" width="8" height="8" rx="1.5" fill="#0D1727"/><rect x="385" y="265" width="8" height="8" rx="1.5" fill="#123153"/><rect x="385" y="276" width="8" height="8" rx="1.5" fill="#123153"/><rect x="385" y="287" width="8" height="8" rx="1.5" fill="#0D1727"/><rect x="396" y="221" width="8" height="8" rx="1.5" fill="#237AB1"/><rect x="396" y="232" width="8" height="8" rx="1.5" fill="#0D1727"/><rect x="396" y="243" width="8" height="8" rx="1.5" fill="#0D1727"/><rect x="396" y="254" width="8" height="8" rx="1.5" fill="#123153"/><rect x="396" y="265" width="8" height="8" rx="1.5" fill="#123153"/><rect x="396" y="276" width="8" height="8" rx="1.5" fill="#0D1727"/><rect x="396" y="287" width="8" height="8" rx="1.5" fill="#0D1727"/><rect x="407" y="221" width="8" height="8" rx="1.5" fill="#0D1727"/><rect x="407" y="232" width="8" height="8" rx="1.5" fill="#0D1727"/><rect x="407" y="243" width="8" height="8" rx="1.5" fill="#0D1727"/><rect x="407" y="254" width="8" height="8" rx="1.5" fill="#0D1727"/><rect x="407" y="265" width="8" height="8" rx="1.5" fill="#0D1727"/><rect x="407" y="276" width="8" height="8" rx="1.5" fill="#0D1727"/><rect x="407" y="287" width="8" height="8" rx="1.5" fill="#123153"/><rect x="418" y="221" width="8" height="8" rx="1.5" fill="#0D1727"/><rect x="418" y="232" width="8" height="8" rx="1.5" fill="#123153"/><rect x="418" y="243" width="8" height="8" rx="1.5" fill="#0D1727"/><rect x="418" y="254" width="8" height="8" rx="1.5" fill="#0D1727"/><rect x="418" y="265" width="8" height="8" rx="1.5" fill="#0D1727"/><rect x="418" y="276" width="8" height="8" rx="1.5" fill="#0D1727"/><rect x="418" y="287" width="8" height="8" rx="1.5" fill="#0D1727"/><rect x="429" y="221" width="8" height="8" rx="1.5" fill="#0D1727"/><rect x="429" y="232" width="8" height="8" rx="1.5" fill="#0D1727"/><rect x="429" y="243" width="8" height="8" rx="1.5" fill="#0D1727"/><rect x="429" y="254" width="8" height="8" rx="1.5" fill="#0D1727"/><rect x="429" y="265" width="8" height="8" rx="1.5" fill="#0D1727"/><rect x="429" y="276" width="8" height="8" rx="1.5" fill="#0D1727"/><rect x="429" y="287" width="8" height="8" rx="1.5" fill="#0D1727"/><rect x="440" y="221" width="8" height="8" rx="1.5" fill="#123153"/><rect x="440" y="232" width="8" height="8" rx="1.5" fill="#0D1727"/><rect x="440" y="243" width="8" height="8" rx="1.5" fill="#0D1727"/><rect x="440" y="254" width="8" height="8" rx="1.5" fill="#123153"/><rect x="440" y="265" width="8" height="8" rx="1.5" fill="#0D1727"/><rect x="440" y="276" width="8" height="8" rx="1.5" fill="#123153"/><rect x="440" y="287" width="8" height="8" rx="1.5" fill="#58E6FF"/><rect x="451" y="221" width="8" height="8" rx="1.5" fill="#58E6FF"/><rect x="451" y="232" width="8" height="8" rx="1.5" fill="#0D1727"/><rect x="451" y="243" width="8" height="8" rx="1.5" fill="#0D1727"/><rect x="451" y="254" width="8" height="8" rx="1.5" fill="#0D1727"/><rect x="451" y="265" width="8" height="8" rx="1.5" fill="#237AB1"/><rect x="451" y="276" width="8" height="8" rx="1.5" fill="#0D1727"/><rect x="451" y="287" width="8" height="8" rx="1.5" fill="#0D1727"/><rect x="462" y="221" width="8" height="8" rx="1.5" fill="#0D1727"/><rect x="462" y="232" width="8" height="8" rx="1.5" fill="#0D1727"/><rect x="462" y="243" width="8" height="8" rx="1.5" fill="#0D1727"/><rect x="462" y="254" width="8" height="8" rx="1.5" fill="#0D1727"/><rect x="462" y="265" width="8" height="8" rx="1.5" fill="#0D1727"/><rect x="462" y="276" width="8" height="8" rx="1.5" fill="#0D1727"/><rect x="462" y="287" width="8" height="8" rx="1.5" fill="#185181"/><rect x="473" y="221" width="8" height="8" rx="1.5" fill="#123153"/><rect x="473" y="232" width="8" height="8" rx="1.5" fill="#0D1727"/><rect x="473" y="243" width="8" height="8" rx="1.5" fill="#123153"/><rect x="473" y="254" width="8" height="8" rx="1.5" fill="#237AB1"/><rect x="473" y="265" width="8" height="8" rx="1.5" fill="#123153"/><rect x="473" y="276" width="8" height="8" rx="1.5" fill="#0D1727"/><rect x="473" y="287" width="8" height="8" rx="1.5" fill="#185181"/><rect x="484" y="221" width="8" height="8" rx="1.5" fill="#0D1727"/><rect x="484" y="232" width="8" height="8" rx="1.5" fill="#0D1727"/><rect x="484" y="243" width="8" height="8" rx="1.5" fill="#0D1727"/><rect x="484" y="254" width="8" height="8" rx="1.5" fill="#0D1727"/><rect x="484" y="265" width="8" height="8" rx="1.5" fill="#0D1727"/><rect x="484" y="276" width="8" height="8" rx="1.5" fill="#0D1727"/><rect x="484" y="287" width="8" height="8" rx="1.5" fill="#0D1727"/><rect x="495" y="221" width="8" height="8" rx="1.5" fill="#0D1727"/><rect x="495" y="232" width="8" height="8" rx="1.5" fill="#0D1727"/><rect x="495" y="243" width="8" height="8" rx="1.5" fill="#123153"/><rect x="495" y="254" width="8" height="8" rx="1.5" fill="#0D1727"/><rect x="495" y="265" width="8" height="8" rx="1.5" fill="#0D1727"/><rect x="495" y="276" width="8" height="8" rx="1.5" fill="#0D1727"/><rect x="495" y="287" width="8" height="8" rx="1.5" fill="#0D1727"/><rect x="506" y="221" width="8" height="8" rx="1.5" fill="#0D1727"/><rect x="506" y="232" width="8" height="8" rx="1.5" fill="#0D1727"/><rect x="506" y="243" width="8" height="8" rx="1.5" fill="#0D1727"/><rect x="506" y="254" width="8" height="8" rx="1.5" fill="#0D1727"/><rect x="506" y="265" width="8" height="8" rx="1.5" fill="#0D1727"/><rect x="506" y="276" width="8" height="8" rx="1.5" fill="#0D1727"/><rect x="506" y="287" width="8" height="8" rx="1.5" fill="#0D1727"/><rect x="517" y="221" width="8" height="8" rx="1.5" fill="#0D1727"/><rect x="517" y="232" width="8" height="8" rx="1.5" fill="#0D1727"/><rect x="517" y="243" width="8" height="8" rx="1.5" fill="#0D1727"/><rect x="517" y="254" width="8" height="8" rx="1.5" fill="#0D1727"/><rect x="517" y="265" width="8" height="8" rx="1.5" fill="#0D1727"/><rect x="517" y="276" width="8" height="8" rx="1.5" fill="#0D1727"/><rect x="517" y="287" width="8" height="8" rx="1.5" fill="#237AB1"/><rect x="528" y="221" width="8" height="8" rx="1.5" fill="#0D1727"/><rect x="528" y="232" width="8" height="8" rx="1.5" fill="#0D1727"/><rect x="528" y="243" width="8" height="8" rx="1.5" fill="#123153"/><rect x="528" y="254" width="8" height="8" rx="1.5" fill="#237AB1"/><rect x="528" y="265" width="8" height="8" rx="1.5" fill="#0D1727"/><rect x="528" y="276" width="8" height="8" rx="1.5" fill="#0D1727"/><rect x="528" y="287" width="8" height="8" rx="1.5" fill="#0D1727"/><rect x="539" y="221" width="8" height="8" rx="1.5" fill="#0D1727"/><rect x="539" y="232" width="8" height="8" rx="1.5" fill="#0D1727"/><rect x="539" y="243" width="8" height="8" rx="1.5" fill="#0D1727"/><rect x="539" y="254" width="8" height="8" rx="1.5" fill="#0D1727"/><rect x="539" y="265" width="8" height="8" rx="1.5" fill="#0D1727"/><rect x="539" y="276" width="8" height="8" rx="1.5" fill="#0D1727"/><rect x="539" y="287" width="8" height="8" rx="1.5" fill="#0D1727"/><rect x="550" y="221" width="8" height="8" rx="1.5" fill="#0D1727"/><rect x="550" y="232" width="8" height="8" rx="1.5" fill="#0D1727"/><rect x="550" y="243" width="8" height="8" rx="1.5" fill="#185181"/><rect x="550" y="254" width="8" height="8" rx="1.5" fill="#0D1727"/><rect x="550" y="265" width="8" height="8" rx="1.5" fill="#0D1727"/><rect x="550" y="276" width="8" height="8" rx="1.5" fill="#123153"/><rect x="550" y="287" width="8" height="8" rx="1.5" fill="#123153"/><rect x="561" y="221" width="8" height="8" rx="1.5" fill="#0D1727"/><rect x="561" y="232" width="8" height="8" rx="1.5" fill="#0D1727"/><rect x="561" y="243" width="8" height="8" rx="1.5" fill="#0D1727"/><rect x="561" y="254" width="8" height="8" rx="1.5" fill="#185181"/><rect x="561" y="265" width="8" height="8" rx="1.5" fill="#0D1727"/><rect x="561" y="276" width="8" height="8" rx="1.5" fill="#0D1727"/><rect x="561" y="287" width="8" height="8" rx="1.5" fill="#0D1727"/><rect x="572" y="221" width="8" height="8" rx="1.5" fill="#0D1727"/><rect x="572" y="232" width="8" height="8" rx="1.5" fill="#0D1727"/><rect x="572" y="243" width="8" height="8" rx="1.5" fill="#123153"/><rect x="572" y="254" width="8" height="8" rx="1.5" fill="#123153"/><rect x="572" y="265" width="8" height="8" rx="1.5" fill="#0D1727"/><rect x="572" y="276" width="8" height="8" rx="1.5" fill="#0D1727"/><rect x="572" y="287" width="8" height="8" rx="1.5" fill="#0D1727"/><rect x="583" y="221" width="8" height="8" rx="1.5" fill="#0D1727"/><rect x="583" y="232" width="8" height="8" rx="1.5" fill="#0D1727"/><rect x="583" y="243" width="8" height="8" rx="1.5" fill="#0D1727"/><rect x="583" y="254" width="8" height="8" rx="1.5" fill="#0D1727"/><rect x="583" y="265" width="8" height="8" rx="1.5" fill="#0D1727"/><rect x="583" y="276" width="8" height="8" rx="1.5" fill="#0D1727"/><rect x="583" y="287" width="8" height="8" rx="1.5" fill="#0D1727"/><rect x="594" y="221" width="8" height="8" rx="1.5" fill="#0D1727"/><rect x="594" y="232" width="8" height="8" rx="1.5" fill="#0D1727"/><rect x="594" y="243" width="8" height="8" rx="1.5" fill="#123153"/><rect x="594" y="254" width="8" height="8" rx="1.5" fill="#185181"/><rect x="594" y="265" width="8" height="8" rx="1.5" fill="#237AB1"/><rect x="594" y="276" width="8" height="8" rx="1.5" fill="#58E6FF"/><path d="M22 304H758" stroke="#1D3354"/><text x="758" y="319" text-anchor="end" class="micro" fill="#58E6A9">SELF-HOSTED DATA // NO THIRD-PARTY CARD SERVICE</text></svg>